# Blender 5.1.1
# www.blender.org
mtllib forty_two.mtl
o Cube
v -0.500000 0.000000 0.500000
v -0.500000 1.000000 0.500000
v -0.500000 0.000000 -0.500000
v -0.500000 1.000000 -0.500000
v 0.500000 0.000000 0.500000
v 0.500000 0.000000 -0.500000
v -0.500000 2.000000 -0.500000
v 0.500000 2.000000 -0.500000
v 0.500000 2.000000 0.500000
v -2.500000 1.000000 0.500000
v -2.500000 1.000000 -0.500000
v -2.500000 2.000000 0.500000
v -2.500000 2.000000 -0.500000
v -1.500000 2.000000 -0.500000
v -1.500000 2.000000 0.500000
v -0.500000 4.000000 0.500000
v -0.500000 4.000000 -0.500000
v 0.500000 4.000000 -0.500000
v 0.500000 4.000000 0.500000
vn -0.0000 -0.0000 1.0000
vn 1.0000 -0.0000 -0.0000
vn -0.0000 -0.0000 -1.0000
vn -0.7071 0.7071 -0.0000
vn -0.0000 -1.0000 -0.0000
vn -0.0000 1.0000 -0.0000
vn 0.7071 -0.7071 -0.0000
vn -1.0000 -0.0000 -0.0000
vt 0.625000 1.000000
vt 0.625000 0.750000
vt 0.375000 0.500000
vt 0.375000 0.750000
vt 0.625000 0.250000
vt 0.875000 0.750000
vt 0.125000 0.500000
vt 0.625000 0.500000
vt 0.875000 0.500000
vt 0.375000 0.000000
vt 0.625000 0.000000
vt 0.375000 1.000000
vt 0.375000 0.250000
vt 0.125000 0.750000
s 0
usemtl Material
f 15/1/1 2/1/1 9/2/1
f 6/3/2 9/2/2 5/4/2
f 14/5/3 7/5/3 4/5/3
f 16/6/4 13/5/4 12/1/4
f 5/4/5 3/7/5 6/3/5
f 16/6/6 18/8/6 17/9/6
f 18/8/7 15/1/7 14/5/7
f 4/5/8 1/10/8 2/11/8
f 12/11/8 11/5/8 10/11/8
f 9/2/6 8/8/6 7/9/6
f 10/11/5 4/5/5 2/11/5
f 15/1/1 19/2/1 16/6/1
f 16/6/1 12/1/1 15/1/1
f 12/1/1 10/1/1 15/1/1
f 2/1/1 1/12/1 5/4/1
f 2/1/1 5/4/1 9/2/1
f 15/1/1 10/1/1 2/1/1
f 6/3/2 8/8/2 9/2/2
f 11/5/3 13/5/3 14/5/3
f 13/5/3 17/9/3 14/5/3
f 17/9/3 18/8/3 14/5/3
f 7/5/3 8/8/3 4/5/3
f 8/8/3 6/3/3 4/5/3
f 6/3/3 3/13/3 4/5/3
f 4/5/3 11/5/3 14/5/3
f 16/6/4 17/9/4 13/5/4
f 5/4/5 1/14/5 3/7/5
f 16/6/6 19/2/6 18/8/6
f 18/8/7 19/2/7 15/1/7
f 4/5/8 3/13/8 1/10/8
f 12/11/8 13/5/8 11/5/8
f 14/9/6 15/6/6 7/9/6
f 15/6/6 9/2/6 7/9/6
f 10/11/5 11/5/5 4/5/5
o Cube.002
v 2.500000 3.000000 0.500000
v 2.500000 4.000000 0.500000
v 2.500000 3.000000 -0.500000
v 2.500000 4.000000 -0.500000
v 3.500000 3.000000 0.500000
v 3.500000 4.000000 0.500000
v 3.500000 3.000000 -0.500000
v 3.500000 4.000000 -0.500000
v 1.500000 1.000000 0.500000
v 1.500000 2.000000 0.500000
v 1.500000 1.000000 -0.500000
v 1.500000 2.000000 -0.500000
v 2.500000 1.000000 0.500000
v 2.500000 2.000000 0.500000
v 2.500000 1.000000 -0.500000
v 2.500000 2.000000 -0.500000
v 3.500000 1.000000 0.500000
v 3.500000 1.000000 -0.500000
v 3.500000 2.000000 0.500000
v 3.500000 2.000000 -0.500000
v 1.500000 4.000000 0.500000
v 1.500000 4.000000 -0.500000
v 1.500000 3.000000 0.500000
v 1.500000 3.000000 -0.500000
vn -1.0000 -0.0000 -0.0000
vn 0.7071 -0.7071 -0.0000
vn -0.0000 -1.0000 -0.0000
vn -0.7071 0.7071 -0.0000
vn 1.0000 -0.0000 -0.0000
vn -0.0000 -0.0000 -1.0000
vn -0.0000 -0.0000 1.0000
vn -0.0000 1.0000 -0.0000
vt 0.625000 0.250000
vt 0.375000 0.000000
vt 0.625000 0.000000
vt 0.375000 0.750000
vt 0.125000 0.500000
vt 0.375000 0.500000
vt 0.625000 0.750000
vt 0.625000 0.500000
vt 0.375000 0.250000
vt 0.875000 0.750000
vt 0.875000 0.500000
vt 0.375000 1.000000
vt 0.125000 0.750000
vt 0.625000 1.000000
s 0
usemtl Material
f 31/15/9 28/16/9 29/17/9
f 42/17/10 23/15/10 21/17/10
f 32/18/11 30/19/11 34/20/11
f 38/18/12 34/20/12 32/18/12
f 33/21/13 34/20/13 35/22/13
f 37/20/11 32/18/11 34/20/11
f 23/15/9 20/16/9 21/17/9
f 31/15/14 22/23/14 35/22/14
f 39/20/13 36/18/13 37/20/13
f 36/18/15 38/18/15 32/18/15
f 37/20/14 34/20/14 39/20/14
f 21/24/16 27/22/16 23/25/16
f 20/16/12 31/15/12 29/17/12
f 43/15/9 40/17/9 41/15/9
f 40/17/15 42/17/15 21/17/15
f 41/15/14 23/15/14 43/15/14
f 25/21/13 26/20/13 27/22/13
f 33/21/15 24/18/15 20/26/15
f 26/20/10 33/21/10 35/22/10
f 41/15/16 21/17/16 23/15/16
f 31/15/9 30/23/9 28/16/9
f 42/17/10 43/15/10 23/15/10
f 32/18/11 28/27/11 30/19/11
f 38/18/12 39/20/12 34/20/12
f 33/21/13 32/18/13 34/20/13
f 37/20/11 36/18/11 32/18/11
f 23/15/9 22/23/9 20/16/9
f 22/23/14 23/15/14 27/22/14
f 27/22/14 26/20/14 22/23/14
f 26/20/14 35/22/14 22/23/14
f 35/22/14 34/20/14 30/23/14
f 30/23/14 31/15/14 35/22/14
f 39/20/13 38/18/13 36/18/13
f 21/24/16 25/21/16 27/22/16
f 20/16/12 22/23/12 31/15/12
f 43/15/9 42/17/9 40/17/9
f 25/21/13 24/18/13 26/20/13
f 24/18/15 25/21/15 21/28/15
f 20/26/15 29/28/15 33/21/15
f 29/28/15 28/26/15 33/21/15
f 24/18/15 21/28/15 20/26/15
f 28/26/15 32/18/15 33/21/15
f 26/20/10 24/18/10 33/21/10
f 41/15/16 40/17/16 21/17/16
