# Blender 5.1.0
# www.blender.org
mtllib forty_two.mtl
o Cube
v -0.500000 0.000000 0.500000
v -0.500000 1.000000 0.500000
v -0.500000 0.000000 -0.500000
v -0.500000 1.000000 -0.500000
v 0.500000 0.000000 0.500000
v 0.500000 1.000000 0.500000
v 0.500000 0.000000 -0.500000
v 0.500000 1.000000 -0.500000
v -0.500000 2.000000 0.500000
v -0.500000 2.000000 -0.500000
v 0.500000 2.000000 -0.500000
v 0.500000 2.000000 0.500000
v -2.500000 1.000000 0.500000
v -2.500000 1.000000 -0.500000
v -2.500000 2.000000 0.500000
v -2.500000 2.000000 -0.500000
v -1.500000 2.000000 -0.500000
v -1.500000 2.000000 0.500000
v -0.500000 4.000000 0.500000
v -0.500000 4.000000 -0.500000
v 0.500000 4.000000 -0.500000
v 0.500000 4.000000 0.500000
vn -1.0000 -0.0000 -0.0000
vn -0.0000 -0.0000 -1.0000
vn 1.0000 -0.0000 -0.0000
vn -0.0000 -0.0000 1.0000
vn -0.0000 -1.0000 -0.0000
vn 0.7071 -0.7071 -0.0000
vn -0.0000 1.0000 -0.0000
vn -0.7071 0.7071 -0.0000
vt 0.625000 0.000000
vt 0.375000 0.250000
vt 0.375000 0.000000
vt 0.625000 0.250000
vt 0.375000 0.500000
vt 0.625000 0.500000
vt 0.375000 0.750000
vt 0.625000 0.750000
vt 0.375000 1.000000
vt 0.125000 0.750000
vt 0.125000 0.500000
vt 0.625000 1.000000
vt 0.875000 0.750000
vt 0.875000 0.500000
s 0
usemtl Material
f 2/1/1 3/2/1 1/3/1
f 4/4/2 7/5/2 3/2/2
f 8/6/3 5/7/3 7/5/3
f 6/8/4 1/9/4 5/7/4
f 7/5/5 1/10/5 3/11/5
f 8/6/3 12/8/3 6/8/3
f 17/4/6 22/8/6 18/12/6
f 17/4/2 14/4/2 16/4/2
f 6/8/4 9/12/4 2/12/4
f 4/4/2 11/6/2 8/6/2
f 13/1/1 16/4/1 14/4/1
f 2/1/5 14/4/5 4/4/5
f 18/12/4 13/12/4 2/12/4
f 18/12/4 19/13/4 15/12/4
f 10/14/7 18/13/7 9/13/7
f 2/12/4 9/12/4 18/12/4
f 10/4/2 4/4/2 17/4/2
f 20/14/7 22/8/7 21/6/7
f 15/12/8 20/14/8 16/4/8
f 17/4/2 20/14/2 21/6/2
f 12/8/7 10/4/7 9/12/7
f 2/1/1 4/4/1 3/2/1
f 4/4/2 8/6/2 7/5/2
f 8/6/3 6/8/3 5/7/3
f 6/8/4 2/12/4 1/9/4
f 7/5/5 5/7/5 1/10/5
f 8/6/3 11/6/3 12/8/3
f 17/4/6 21/6/6 22/8/6
f 17/4/2 4/4/2 14/4/2
f 6/8/4 12/8/4 9/12/4
f 4/4/2 10/4/2 11/6/2
f 13/1/1 15/1/1 16/4/1
f 2/1/5 13/1/5 14/4/5
f 18/12/4 15/12/4 13/12/4
f 18/12/4 22/8/4 19/13/4
f 10/14/7 17/14/7 18/13/7
f 20/14/7 19/13/7 22/8/7
f 15/12/8 19/13/8 20/14/8
f 17/4/2 16/4/2 20/14/2
f 12/8/7 11/6/7 10/4/7
o Cube.002
v 2.500000 3.000000 0.500000
v 2.500000 4.000000 0.500000
v 2.500000 3.000000 -0.500000
v 2.500000 4.000000 -0.500000
v 3.500000 3.000000 0.500000
v 3.500000 4.000000 0.500000
v 3.500000 3.000000 -0.500000
v 3.500000 4.000000 -0.500000
v 1.500000 1.000000 0.500000
v 1.500000 2.000000 0.500000
v 1.500000 1.000000 -0.500000
v 1.500000 2.000000 -0.500000
v 2.500000 1.000000 0.500000
v 2.500000 2.000000 0.500000
v 2.500000 1.000000 -0.500000
v 2.500000 2.000000 -0.500000
v 3.500000 1.000000 0.500000
v 3.500000 1.000000 -0.500000
v 3.500000 2.000000 0.500000
v 3.500000 2.000000 -0.500000
v 1.500000 4.000000 0.500000
v 1.500000 4.000000 -0.500000
v 1.500000 3.000000 0.500000
v 1.500000 3.000000 -0.500000
vn -1.0000 -0.0000 -0.0000
vn -0.0000 -0.0000 -1.0000
vn 1.0000 -0.0000 -0.0000
vn -0.0000 -0.0000 1.0000
vn -0.0000 1.0000 -0.0000
vn -0.0000 -1.0000 -0.0000
vn 0.7071 -0.7071 -0.0000
vn -0.7071 0.7071 -0.0000
vt 0.625000 0.000000
vt 0.375000 0.250000
vt 0.375000 0.000000
vt 0.625000 0.250000
vt 0.375000 0.500000
vt 0.625000 0.500000
vt 0.375000 0.750000
vt 0.625000 0.750000
vt 0.375000 1.000000
vt 0.625000 1.000000
vt 0.875000 0.500000
vt 0.125000 0.750000
vt 0.125000 0.500000
vt 0.875000 0.750000
s 0
usemtl Material
f 24/15/9 25/16/9 23/17/9
f 26/18/10 29/19/10 25/16/10
f 30/20/11 27/21/11 29/19/11
f 28/22/12 23/23/12 27/21/12
f 36/22/12 23/23/12 32/24/12
f 26/25/13 28/22/13 30/20/13
f 32/15/9 33/16/9 31/17/9
f 34/18/10 37/19/10 33/16/10
f 38/20/11 35/21/11 37/19/11
f 36/22/12 31/23/12 35/21/12
f 37/19/14 31/26/14 33/27/14
f 38/20/15 27/21/15 36/22/15
f 38/20/10 25/16/10 29/19/10
f 32/15/16 25/16/16 34/18/16
f 37/19/14 39/21/14 35/21/14
f 40/19/11 41/21/11 39/21/11
f 35/21/16 42/19/16 37/19/16
f 39/21/12 41/21/12 35/21/12
f 40/19/10 37/19/10 42/19/10
f 26/18/13 43/15/13 24/15/13
f 44/18/9 45/15/9 43/15/9
f 24/15/15 46/18/15 26/18/15
f 43/15/12 45/15/12 24/15/12
f 44/18/10 26/18/10 46/18/10
f 24/15/9 26/18/9 25/16/9
f 26/18/10 30/20/10 29/19/10
f 30/20/11 28/22/11 27/21/11
f 28/22/12 24/24/12 23/23/12
f 36/22/12 27/21/12 23/23/12
f 26/25/13 24/28/13 28/22/13
f 32/15/9 34/18/9 33/16/9
f 34/18/10 38/20/10 37/19/10
f 38/20/11 36/22/11 35/21/11
f 36/22/12 32/24/12 31/23/12
f 37/19/14 35/21/14 31/26/14
f 38/20/15 29/19/15 27/21/15
f 38/20/10 34/18/10 25/16/10
f 32/15/16 23/17/16 25/16/16
f 37/19/14 40/19/14 39/21/14
f 40/19/11 42/19/11 41/21/11
f 35/21/16 41/21/16 42/19/16
f 26/18/13 44/18/13 43/15/13
f 44/18/9 46/18/9 45/15/9
f 24/15/15 45/15/15 46/18/15
