# Blender 5.1.2
# www.blender.org
mtllib perdu.mtl
o Cube
v -8.500000 -0.000000 -0.500000
v -8.500000 0.000000 0.500000
v -9.500000 -0.000000 -0.500000
v -9.500000 0.000000 0.500000
v -9.500000 5.000000 -0.500000
v -9.500000 5.000000 0.500000
v -8.500000 4.000000 -0.500000
v -8.500000 4.000000 0.500000
v -6.500000 4.000000 -0.500000
v -6.500000 4.000000 0.500000
v -7.500000 4.000000 0.500000
v -7.500000 5.000000 0.500000
v -7.500000 5.000000 -0.500000
v -7.500000 4.000000 -0.500000
v -7.500000 2.000000 -0.500000
v -7.500000 2.000000 0.500000
v -8.500000 2.000000 -0.500000
v -6.500000 3.000000 -0.500000
v -7.500000 3.000000 -0.500000
v -6.500000 3.000000 0.500000
v -7.500000 3.000000 0.500000
v -8.500000 3.000000 -0.500000
v -8.500000 3.000000 0.500000
v -8.500000 2.000000 0.500000
vn -0.0000 -1.0000 -0.0000
vn 1.0000 -0.0000 -0.0000
vn -0.0000 -0.0000 1.0000
vn 0.7071 0.7071 -0.0000
vn 0.7071 -0.7071 -0.0000
vn -1.0000 -0.0000 -0.0000
vn -0.0000 -0.0000 -1.0000
vn -0.0000 1.0000 -0.0000
vt 0.952202 0.374757
vt 0.803362 0.188707
vt 0.952202 0.188707
vt 0.752677 -0.003249
vt 0.610560 0.174398
vt 0.610560 -0.003249
vt 0.653133 0.183530
vt 0.511016 0.005884
vt 0.653133 0.005884
vt 0.805802 0.745597
vt 0.618590 0.745597
vt 0.618590 0.932808
vt 0.430406 0.017889
vt 0.260307 0.318583
vt 0.260307 0.017889
vt 0.808215 0.489999
vt 0.967048 0.209219
vt 0.967048 0.489999
vt 0.511016 0.361304
vt 0.653133 0.183657
vt 0.653133 0.361304
vt 0.808215 0.688541
vt 0.967048 0.688541
vt 0.805802 0.558386
vt 0.618591 0.371174
vt 0.805802 0.371174
vt 1.002151 0.931660
vt 0.853062 -0.000146
vt 0.853062 0.931660
vt 0.803362 0.746857
vt 0.803362 0.374757
vt 0.993013 0.932808
vt 0.653260 0.183657
vt 0.795377 0.361304
vt 0.653260 0.361304
vt 0.618590 0.558385
vt 0.805802 0.558385
vt 0.967048 0.010678
vt 0.808215 0.209219
vt 0.808215 0.010678
vt 0.430406 0.743830
vt 0.260307 0.743830
vt 0.752677 0.174398
vt 0.511016 0.183530
vt 0.431379 0.558385
vt 0.431379 0.745597
vt 0.993013 -0.003249
vt 0.805802 -0.003249
vt 0.430406 0.318583
vt 0.511016 0.183657
vt 0.618591 0.558386
vt 1.002151 -0.000146
vt 0.952202 0.746857
vt 0.618591 0.932808
vt 0.618591 0.745597
vt 0.431379 0.558386
vt 0.795377 0.183657
s 1
usemtl Material.001
f 1/1/1 4/2/1 3/3/1
f 22/4/2 8/5/2 23/6/2
f 7/7/1 11/8/1 8/9/1
f 8/10/3 11/11/3 12/12/3
f 9/13/4 12/14/4 10/15/4
f 20/16/5 15/17/5 18/18/5
f 14/19/6 21/20/6 11/21/6
f 10/22/2 18/18/2 9/23/2
f 22/24/7 15/25/7 17/26/7
f 5/27/6 4/28/6 6/29/6
f 1/1/2 24/30/2 2/31/2
f 7/10/7 22/24/7 5/32/7
f 23/33/8 19/34/8 22/35/8
f 24/26/3 21/36/3 23/37/3
f 17/38/1 16/39/1 24/40/1
f 12/14/8 5/41/8 6/42/8
f 1/1/1 2/31/1 4/2/1
f 22/4/2 7/43/2 8/5/2
f 7/7/1 14/44/1 11/8/1
f 20/45/3 10/46/3 11/11/3
f 10/46/3 12/12/3 11/11/3
f 6/32/3 4/47/3 24/26/3
f 4/47/3 2/48/3 24/26/3
f 21/36/3 16/25/3 20/45/3
f 11/11/3 21/36/3 20/45/3
f 6/32/3 24/26/3 23/37/3
f 6/32/3 23/37/3 8/10/3
f 6/32/3 8/10/3 12/12/3
f 9/13/4 13/49/4 12/14/4
f 20/16/5 16/39/5 15/17/5
f 14/19/6 19/50/6 21/20/6
f 10/22/2 20/16/2 18/18/2
f 22/24/7 19/51/7 15/25/7
f 5/27/6 3/52/6 4/28/6
f 1/1/2 17/53/2 24/30/2
f 5/32/7 13/54/7 7/10/7
f 13/54/7 9/46/7 14/55/7
f 9/46/7 18/56/7 19/51/7
f 18/56/7 15/25/7 19/51/7
f 1/48/7 3/47/7 17/26/7
f 3/47/7 5/32/7 17/26/7
f 9/46/7 19/51/7 14/55/7
f 13/54/7 14/55/7 7/10/7
f 22/24/7 17/26/7 5/32/7
f 23/33/8 21/57/8 19/34/8
f 24/26/3 16/25/3 21/36/3
f 17/38/1 15/17/1 16/39/1
f 12/14/8 13/49/8 5/41/8
o Cube.001
v -5.500000 0.000000 0.500000
v -5.500000 -0.000000 -0.500000
v -4.500000 1.000000 0.500000
v -4.500000 1.000000 -0.500000
v -5.500000 5.000000 0.500000
v -5.500000 5.000000 -0.500000
v -4.500000 2.000000 -0.500000
v -4.500000 3.000000 -0.500000
v -4.500000 4.000000 -0.500000
v -4.500000 4.000000 0.500000
v -4.500000 3.000000 0.500000
v -4.500000 2.000000 0.500000
v -2.500000 5.000000 -0.500000
v -2.500000 5.000000 0.500000
v -2.500000 4.000000 -0.500000
v -2.500000 4.000000 0.500000
v -3.500000 2.000000 -0.500000
v -3.500000 3.000000 -0.500000
v -3.500000 3.000000 0.500000
v -3.500000 2.000000 0.500000
v -2.500000 1.000000 -0.500000
v -2.500000 -0.000000 -0.500000
v -2.500000 0.000000 0.500000
v -2.500000 1.000000 0.500000
vn -0.0000 1.0000 -0.0000
vn -0.0000 -0.0000 1.0000
vn -0.0000 -0.0000 -1.0000
vn -1.0000 -0.0000 -0.0000
vn 1.0000 -0.0000 -0.0000
vn -0.0000 -1.0000 -0.0000
vt 0.620124 0.265020
vt 0.460397 0.664335
vt 0.460397 0.265020
vt 0.768102 0.406903
vt 0.768102 0.600382
vt 0.922885 0.987338
vt 0.922885 0.019947
vt 0.979826 0.989601
vt 0.825011 0.022010
vt 0.979826 0.022010
vt 0.346087 0.514457
vt 0.176053 0.727000
vt 0.176053 0.514457
vt 0.346087 0.727000
vt 0.176053 0.939542
vt 0.620828 0.664011
vt 0.461449 0.863235
vt 0.461449 0.664011
vt 0.620828 0.265565
vt 0.461449 0.265565
vt 0.755197 0.203910
vt 0.585163 0.416453
vt 0.585163 0.203910
vt 0.613319 0.600382
vt 0.613319 0.406904
vt 0.620124 0.863993
vt 0.460397 0.863993
vt 0.920360 0.768221
vt 0.460359 0.959888
vt 0.460359 0.768221
vt 0.460092 0.959999
vt 0.920360 0.960000
vt 0.620124 0.664335
vt 0.768102 0.793860
vt 0.458536 0.793860
vt 0.458536 0.987339
vt 0.922884 0.019947
vt 0.458537 0.019947
vt 0.768102 0.213425
vt 0.458537 0.213425
vt 0.458537 0.987339
vt 0.458537 0.793860
vt 0.825011 0.989601
vt 0.346087 0.939542
vt 0.620828 0.863235
vt 0.755197 0.416453
vt 0.613319 0.406903
vt 0.613320 0.600382
vt 0.920360 0.959888
vt 0.460092 0.768221
s 1
usemtl Material.001
f 27/58/9 45/59/9 28/60/9
f 36/61/10 35/62/10 29/63/10
f 26/64/11 32/62/11 31/61/11
f 29/65/12 26/66/12 25/67/12
f 28/68/13 36/69/13 27/70/13
f 31/71/14 44/72/14 36/69/14
f 32/71/13 34/72/13 35/69/13
f 39/73/13 38/74/13 40/75/13
f 33/76/14 40/75/14 34/77/14
f 41/78/13 43/79/13 44/80/13
f 35/69/9 42/68/9 32/71/9
f 36/61/10 43/81/10 35/62/10
f 32/62/11 41/82/11 31/61/11
f 45/59/13 47/83/13 46/84/13
f 46/85/14 25/86/14 26/87/14
f 38/88/9 30/85/9 29/89/9
f 27/58/9 48/90/9 45/59/9
f 34/91/10 40/92/10 38/93/10
f 25/94/10 47/95/10 27/96/10
f 47/95/10 48/97/10 27/96/10
f 34/91/10 38/93/10 29/63/10
f 35/62/10 34/91/10 29/63/10
f 29/63/10 25/94/10 36/61/10
f 25/94/10 27/96/10 36/61/10
f 30/63/11 37/98/11 33/91/11
f 37/98/11 39/99/11 33/91/11
f 45/97/11 46/95/11 28/96/11
f 46/95/11 26/64/11 28/96/11
f 26/64/11 30/63/11 32/62/11
f 30/63/11 33/91/11 32/62/11
f 31/61/11 28/96/11 26/64/11
f 29/65/12 30/100/12 26/66/12
f 28/68/13 31/71/13 36/69/13
f 31/71/14 41/101/14 44/72/14
f 32/71/13 33/101/13 34/72/13
f 39/73/13 37/102/13 38/74/13
f 33/76/14 39/73/14 40/75/14
f 41/78/13 42/103/13 43/79/13
f 35/69/9 43/70/9 42/68/9
f 36/61/10 44/104/10 43/81/10
f 32/62/11 42/105/11 41/82/11
f 45/59/13 48/90/13 47/83/13
f 46/85/14 47/106/14 25/86/14
f 38/88/9 37/107/9 30/85/9
o Cube.002
v -1.500000 0.000000 0.500000
v -1.500000 -0.000000 -0.500000
v -0.500000 0.000000 0.500000
v -0.500000 1.000000 0.500000
v -0.500000 -0.000000 -0.500000
v -0.500000 1.000000 -0.500000
v -1.500000 5.000000 0.500000
v -1.500000 5.000000 -0.500000
v -0.500000 5.000000 -0.500000
v -0.500000 5.000000 0.500000
v -0.500000 2.000000 -0.500000
v -0.500000 3.000000 -0.500000
v -0.500000 4.000000 -0.500000
v -0.500000 4.000000 0.500000
v -0.500000 3.000000 0.500000
v -0.500000 2.000000 0.500000
v 0.500000 2.000000 0.500000
v 0.500000 2.000000 -0.500000
v 1.500000 4.000000 -0.500000
v 1.500000 4.000000 0.500000
v 0.500000 4.000000 0.500000
v 0.500000 5.000000 0.500000
v 0.500000 4.000000 -0.500000
v 0.500000 5.000000 -0.500000
v 1.500000 3.000000 0.500000
v 1.500000 3.000000 -0.500000
v 0.500000 3.000000 -0.500000
v 0.500000 3.000000 0.500000
v 0.500000 0.000000 0.500000
v 0.500000 -0.000000 -0.500000
v 1.500000 -0.000000 -0.500000
v 1.500000 0.000000 0.500000
v 1.500000 1.000000 -0.500000
v 1.500000 1.000000 0.500000
vn 1.0000 -0.0000 -0.0000
vn -0.0000 -1.0000 -0.0000
vn -0.0000 -0.0000 1.0000
vn -0.0000 1.0000 -0.0000
vn -1.0000 -0.0000 -0.0000
vn -0.0000 -0.0000 -1.0000
vn 0.7071 -0.7071 -0.0000
vn 0.7071 0.7071 -0.0000
vt 0.259152 0.490157
vt 0.114221 0.308994
vt 0.259152 0.308994
vt 0.114221 0.127831
vt 0.259152 0.127831
vt 0.983034 0.786651
vt 0.838055 0.967874
vt 0.838055 0.786652
vt 0.549261 0.635065
vt 0.399603 0.829779
vt 0.399603 0.635065
vt 0.558504 0.964876
vt 0.413287 0.057272
vt 0.558504 0.057272
vt 0.693077 0.424206
vt 0.693077 0.605429
vt 0.548099 0.967874
vt 0.114221 0.671320
vt 0.114221 0.490157
vt 0.388520 0.807736
vt 0.250798 0.979888
vt 0.250798 0.807736
vt 0.092603 0.357692
vt 0.233225 0.173086
vt 0.233225 0.357692
vt 0.838055 0.786651
vt 0.983034 0.605429
vt 0.838055 0.605429
vt 0.838055 0.424206
vt 0.249946 0.635065
vt 0.693077 0.967874
vt 0.693077 0.786651
vt 0.388520 0.979888
vt 0.693077 0.786652
vt 0.233351 0.536872
vt 0.093002 0.720143
vt 0.093002 0.536872
vt 0.092603 0.536691
vt 0.233225 0.536691
vt 0.259152 0.671320
vt 0.114221 0.852483
vt 0.841972 0.064846
vt 0.984317 0.242777
vt 0.841972 0.420709
vt 0.984317 0.064846
vt 0.262535 0.303054
vt 0.375859 0.136404
vt 0.375859 0.303054
vt 0.098415 0.302426
vt 0.246064 0.117865
vt 0.246064 0.302426
vt 0.098415 0.671549
vt 0.375859 0.490887
vt 0.262535 0.490887
vt 0.549261 0.829779
vt 0.413287 0.964876
vt 0.548099 0.061761
vt 0.693077 0.061761
vt 0.693077 0.242983
vt 0.693077 0.061760
vt 0.548099 0.061760
vt 0.092603 0.173086
vt 0.249946 0.829779
vt 0.233351 0.720143
vt 0.259152 0.852483
vt 0.262535 0.136404
vt 0.098415 0.117865
vt 0.246064 0.671549
s 1
usemtl Material.001
f 54/108/15 51/109/15 53/110/15
f 53/110/16 49/111/16 50/112/16
f 68/113/17 70/114/17 69/115/17
f 56/116/18 58/117/18 57/118/18
f 55/119/19 50/120/19 49/121/19
f 64/122/17 63/123/17 55/124/17
f 56/124/20 60/123/20 59/122/20
f 54/108/15 64/125/15 52/126/15
f 60/127/15 62/128/15 63/129/15
f 73/130/21 66/131/21 74/132/21
f 71/133/20 72/114/20 67/113/20
f 73/134/17 76/135/17 65/136/17
f 58/117/18 72/137/18 57/118/18
f 57/138/20 71/133/20 61/139/20
f 61/140/16 69/129/16 62/127/16
f 62/141/17 70/114/17 58/138/17
f 67/142/22 70/143/22 68/144/22
f 74/134/20 66/136/20 75/135/20
f 69/115/17 73/134/17 68/113/17
f 67/113/20 75/135/20 71/133/20
f 71/127/19 76/128/19 69/129/19
f 68/145/15 74/132/15 67/146/15
f 76/135/17 64/122/17 65/136/17
f 75/140/18 63/129/18 76/127/18
f 66/136/20 60/123/20 75/135/20
f 59/147/16 65/148/16 64/125/16
f 77/149/17 82/150/17 65/151/17
f 78/149/20 81/150/20 79/152/20
f 81/153/19 80/154/19 82/155/19
f 77/156/18 79/157/18 78/158/18
f 78/158/15 65/159/15 77/156/15
f 65/160/22 81/153/22 66/161/22
f 54/108/15 52/126/15 51/109/15
f 53/110/16 51/109/16 49/111/16
f 56/116/18 55/162/18 58/117/18
f 55/119/19 56/163/19 50/120/19
f 62/141/17 58/138/17 55/124/17
f 55/124/17 49/164/17 64/122/17
f 49/164/17 51/165/17 52/166/17
f 49/164/17 52/166/17 64/122/17
f 63/123/17 62/141/17 55/124/17
f 53/167/20 50/168/20 54/166/20
f 50/168/20 56/124/20 59/122/20
f 54/166/20 50/168/20 59/122/20
f 56/124/20 57/138/20 61/139/20
f 56/124/20 61/139/20 60/123/20
f 54/108/15 59/147/15 64/125/15
f 60/127/15 61/140/15 62/128/15
f 73/130/21 65/169/21 66/131/21
f 58/117/18 70/170/18 72/137/18
f 57/138/20 72/114/20 71/133/20
f 61/140/16 71/128/16 69/129/16
f 62/141/17 69/115/17 70/114/17
f 67/142/22 72/171/22 70/143/22
f 69/115/17 76/135/17 73/134/17
f 67/113/20 74/134/20 75/135/20
f 71/127/19 75/140/19 76/128/19
f 68/145/15 73/130/15 74/132/15
f 76/135/17 63/123/17 64/122/17
f 75/140/18 60/128/18 63/129/18
f 66/136/20 59/122/20 60/123/20
f 59/147/16 66/172/16 65/148/16
f 77/149/17 80/152/17 82/150/17
f 78/149/20 66/151/20 81/150/20
f 81/153/19 79/173/19 80/154/19
f 77/156/18 80/174/18 79/157/18
f 78/158/15 66/175/15 65/159/15
f 65/160/22 82/155/22 81/153/22
o Cube.003
v 2.500000 0.000000 0.500000
v 2.500000 -0.000000 -0.500000
v 3.500000 0.000000 0.500000
v 3.500000 1.000000 0.500000
v 3.500000 -0.000000 -0.500000
v 3.500000 1.000000 -0.500000
v 2.500000 5.000000 0.500000
v 2.500000 5.000000 -0.500000
v 3.500000 5.000000 -0.500000
v 3.500000 5.000000 0.500000
v 5.500000 1.000000 0.500000
v 5.500000 1.000000 -0.500000
v 5.500000 4.000000 -0.500000
v 5.500000 4.000000 0.500000
v 3.500000 4.000000 0.500000
v 3.500000 4.000000 -0.500000
v 4.500000 4.000000 0.500000
v 4.500000 4.000000 -0.500000
v 4.500000 5.000000 -0.500000
v 4.500000 5.000000 0.500000
v 4.500000 1.000000 0.500000
v 4.500000 0.000000 0.500000
v 4.500000 -0.000000 -0.500000
v 4.500000 1.000000 -0.500000
vn -1.0000 -0.0000 -0.0000
vn -0.0000 -0.0000 -1.0000
vn -0.0000 -1.0000 -0.0000
vn -0.0000 1.0000 -0.0000
vn -0.0000 -0.0000 1.0000
vn 1.0000 -0.0000 -0.0000
vn 0.7071 -0.7071 -0.0000
vn 0.7071 0.7071 -0.0000
vt 0.134739 0.823768
vt 0.004818 0.011763
vt 0.134739 0.011763
vt 0.004818 0.823768
vt 0.134739 0.661367
vt 0.134739 0.174164
vt 0.394581 0.174164
vt 0.264660 0.011763
vt 0.264660 0.174164
vt 0.134739 0.995285
vt 0.264660 0.823768
vt 0.264660 0.995285
vt 0.394581 0.661367
vt 0.264660 0.661367
vt 0.519405 0.009311
vt 0.519405 0.174164
vt 0.134739 0.489851
vt 0.264660 0.345681
vt 0.134739 0.345681
vt 0.519405 0.661367
vt 0.394581 0.826220
vt 0.004818 0.995285
vt 0.394581 0.009311
vt 0.264660 0.489851
vt 0.519405 0.826220
s 1
usemtl Material.001
f 89/176/23 84/177/23 83/178/23
f 90/179/24 98/180/24 88/181/24
f 94/182/24 105/183/24 106/184/24
f 87/185/25 83/186/25 84/187/25
f 90/186/26 92/185/26 91/176/26
f 86/181/27 97/180/27 89/179/27
f 96/188/27 102/186/27 99/189/27
f 92/185/26 101/179/26 91/176/26
f 88/184/28 97/180/28 86/181/28
f 104/183/27 93/182/27 103/184/27
f 93/182/29 105/190/29 94/191/29
f 100/189/24 101/186/24 95/188/24
f 103/184/27 96/188/27 99/189/27
f 91/176/24 100/189/24 98/180/24
f 98/192/25 99/189/25 97/180/25
f 97/180/27 102/186/27 92/176/27
f 86/181/26 106/193/26 88/194/26
f 87/185/25 104/179/25 85/176/25
f 85/178/27 103/184/27 86/181/27
f 88/181/24 105/183/24 87/178/24
f 95/195/30 102/196/30 96/188/30
f 93/182/28 95/195/28 96/188/28
f 100/189/24 94/182/24 106/184/24
f 106/184/23 99/180/23 100/189/23
f 89/176/23 90/179/23 84/177/23
f 87/178/24 84/177/24 88/181/24
f 84/177/24 90/179/24 88/181/24
f 90/179/24 91/176/24 98/180/24
f 87/185/25 85/176/25 83/186/25
f 90/186/26 89/187/26 92/185/26
f 97/180/27 92/176/27 89/179/27
f 89/179/27 83/177/27 86/181/27
f 83/177/27 85/178/27 86/181/27
f 92/185/26 102/197/26 101/179/26
f 88/184/28 98/189/28 97/180/28
f 93/182/29 104/198/29 105/190/29
f 103/184/27 93/182/27 96/188/27
f 91/176/24 101/186/24 100/189/24
f 98/192/25 100/199/25 99/189/25
f 97/180/27 99/189/27 102/186/27
f 86/181/26 103/184/26 106/193/26
f 87/185/25 105/197/25 104/179/25
f 85/178/27 104/183/27 103/184/27
f 88/181/24 106/184/24 105/183/24
f 95/195/30 101/200/30 102/196/30
f 93/182/28 94/191/28 95/195/28
f 100/189/24 95/188/24 94/182/24
f 106/184/23 103/181/23 99/180/23
o Cube.004
v 6.500000 1.000000 0.500000
v 6.500000 1.000000 -0.500000
v 7.500000 0.000000 0.500000
v 7.500000 1.000000 0.500000
v 7.500000 -0.000000 -0.500000
v 7.500000 1.000000 -0.500000
v 8.500000 0.000000 0.500000
v 8.500000 1.000000 0.500000
v 8.500000 -0.000000 -0.500000
v 8.500000 1.000000 -0.500000
v 9.500000 1.000000 0.500000
v 9.500000 1.000000 -0.500000
v 6.500000 5.000000 0.500000
v 6.500000 5.000000 -0.500000
v 7.500000 5.000000 -0.500000
v 7.500000 5.000000 0.500000
v 8.500000 5.000000 0.500000
v 8.500000 5.000000 -0.500000
v 9.500000 5.000000 -0.500000
v 9.500000 5.000000 0.500000
vn -0.0000 1.0000 -0.0000
vn -0.0000 -0.0000 -1.0000
vn -1.0000 -0.0000 -0.0000
vn -0.0000 -0.0000 1.0000
vn 1.0000 -0.0000 -0.0000
vn 0.7071 0.7071 -0.0000
vn -0.7071 0.7071 -0.0000
vt 0.157039 0.034025
vt 0.288680 0.198576
vt 0.157039 0.198576
vt 0.288680 0.034025
vt 0.157039 0.198577
vt 0.157039 0.176429
vt 0.288680 0.011878
vt 0.157039 0.011878
vt 0.906595 0.176429
vt 0.806686 0.834635
vt 0.806686 0.176429
vt 0.288680 0.176429
vt 0.025398 0.176429
vt 0.420321 0.176429
vt 0.420321 0.834635
vt 0.025398 0.999186
vt 0.157039 0.834635
vt 0.157039 0.999186
vt 0.288680 0.999186
vt 0.420321 0.999186
vt 0.025398 0.834635
vt 0.850344 0.176429
vt 0.750436 0.834635
vt 0.750436 0.176429
vt 0.569837 0.176429
vt 0.469927 0.834635
vt 0.469928 0.176429
vt 0.288680 0.834635
vt 0.806686 0.011878
vt 0.750436 0.011878
vt 0.850344 0.011878
vt 0.288680 0.198577
vt 0.906595 0.834635
vt 0.850344 0.834635
vt 0.569836 0.834635
vt 0.906595 0.011878
s 1
usemtl Material.001
f 110/201/31 116/202/31 112/203/31
f 113/204/31 111/205/31 109/201/31
f 112/206/32 115/207/32 111/208/32
f 107/209/33 120/210/33 108/211/33
f 109/208/34 114/212/34 110/206/34
f 109/208/34 110/206/34 107/213/34
f 115/207/32 116/212/32 118/214/32
f 112/206/32 111/208/32 108/213/32
f 114/212/34 113/207/34 117/214/34
f 116/212/32 125/215/32 118/214/32
f 120/216/31 122/217/31 121/218/31
f 124/219/31 126/215/31 125/220/31
f 110/206/34 119/221/34 107/213/34
f 118/222/35 126/223/35 117/224/35
f 108/213/32 121/217/32 112/206/32
f 114/225/33 124/226/33 116/227/33
f 117/214/34 123/228/34 114/212/34
f 112/225/35 122/226/35 110/227/35
f 107/209/36 111/229/36 108/211/36
f 113/230/37 118/222/37 115/231/37
f 110/201/31 114/204/31 116/202/31
f 113/204/31 115/232/31 111/205/31
f 112/206/32 116/212/32 115/207/32
f 107/209/33 119/233/33 120/210/33
f 109/208/34 113/207/34 114/212/34
f 116/212/32 124/228/32 125/215/32
f 120/216/31 119/221/31 122/217/31
f 124/219/31 123/228/31 126/215/31
f 110/206/34 122/217/34 119/221/34
f 118/222/35 125/234/35 126/223/35
f 108/213/32 120/221/32 121/217/32
f 114/225/33 123/235/33 124/226/33
f 117/214/34 126/215/34 123/228/34
f 112/225/35 121/235/35 122/226/35
f 107/209/36 109/236/36 111/229/36
f 113/230/37 117/224/37 118/222/37
